<svg
  xmlns="http://www.w3.org/2000/svg"
  viewBox="-20 -28 145 150"
  style="margin: 0 auto; max-width: 30em; display: block;"
>
  <circle fill="rgb(204, 0, 0)" cx="50" cy="43" r="70"/>
  <path id="a" fill-opacity="0.25" fill="white" class="section-a" d="M27.502 16.188a30 30 0 1 0 10.567 57.71 30 30 0 0 1 .537-30.475 30 30 0 0 1-11.104-27.235"/>
  <path id="b" fill-opacity="0.25" fill="white" class="section-b" d="M27.502 16.188A30 30 0 1 1 82.5 36.616a30 30 0 0 0-30.105-4.763 30 30 0 0 0-24.893-15.665"/>
  <path id="c" fill-opacity="0.25" fill="white" class="section-c" d="M38.07 73.898A30 30 0 1 0 82.5 36.616a30 30 0 0 1-26.715 13.278A30 30 0 0 1 38.07 73.898"/>
  <path id="ab" fill-opacity="0.5" fill="white" class="section-a-b" d="M27.502 16.188a30 30 0 0 0 11.104 27.235 30 30 0 0 1 13.789-11.57 30 30 0 0 0-24.893-15.665"/>
  <path id="ac" fill-opacity="0.5" fill="white" class="section-a-c" d="M55.785 49.894A30 30 0 0 1 38.07 73.898a30 30 0 0 1 .537-30.475 30 30 0 0 0 17.18 6.471"/>
  <path id="bc" fill-opacity="0.5" fill="white" class="section-b-c" d="M55.785 49.894A30 30 0 0 0 82.5 36.616a30 30 0 0 0-30.105-4.763 30 30 0 0 1 3.39 18.041"/>
  <path id="abc" fill-opacity="0.75" fill="white" class="section-a-b-c" d="M55.785 49.894a30 30 0 0 1-17.179-6.471 30 30 0 0 1 13.789-11.57 30 30 0 0 1 3.39 18.041"/>

  <text transform="translate(5 0)">
    <textPath xlink:href="#a" alignment-baseline="top" startOffset="25" font-size="12" fill="rgb(184, 0, 0)" font="Roboto,Noto Sans,-apple-system,BlinkMacSystemFont,sans-serif">
      techniek
    </textPath>
  </text>
  <text transform="translate(-2.5 2.5)">
    <textPath xlink:href="#b" alignment-baseline="bottom" startOffset="30" font-size="12" fill="rgb(184, 0, 0)" font="Roboto,Noto Sans,-apple-system,BlinkMacSystemFont,sans-serif">
      interactie
    </textPath>
  </text>
</svg>
